#!OML:ASF I:\Random Stuff\random\construction\7_22_03\Session 2\subj1.ASF
:FULLY-SPECIFIED
:DEGREES
3244
root 10.6802 17.364 -3.86947 -244.273 -264.116 444.792
lowerback 37.6708 -0.763422 0.0605332
upperback 9.79746 0.0331655 -1.67177
thorax -7.68226 0.482016 -1.87554
lowerneck -26.7751 4.84917 2.2694
upperneck 25.3511 6.7154 -2.16074
head 13.1039 2.85231 0.0469365
rclavicle 4.92986e-014 3.73715e-014
rhumerus 16.0989 -11.4195 -69.2514
rradius 20.6087
rwrist 30.9372
rhand -33.0804 21.2206
rfingers 7.12502
rthumb -6.29188 -8.66601
lclavicle 4.92986e-014 3.73715e-014
lhumerus 25.6511 -3.3031 78.6264
lradius 41.8856
lwrist 37.0117
lhand -15.6318 59.7542
lfingers 7.12502
lthumb 10.5554 1169.47
rfemur -50.0568 -13.7719 33.8485
rtibia 33.031
rfoot -11.9137 -7.23741
rtoes -21.1613
lfemur -58.647 6.90383 -16.6556
ltibia 38.5237
lfoot -9.00756 8.40923
ltoes -27.4937
3245
root 10.6774 17.3631 -3.87485 -240.963 -264.055 448.163
lowerback 37.4215 -0.762683 0.0585026
upperback 9.74022 0.00257476 -1.78445
thorax -7.66304 0.462939 -1.98078
lowerneck -26.6277 4.93431 2.48587
upperneck 25.4708 6.79193 -2.2601
head 13.1395 2.89365 -0.0137517
rclavicle 7.55382e-014 4.37326e-014
rhumerus 16.2765 -9.97062 -69.6607
rradius 23.4862
rwrist 23.5088
rhand -32.0517 17.6492
rfingers 7.12502
rthumb -5.2986 -12.2645
lclavicle 7.55382e-014 4.37326e-014
lhumerus 25.1171 -2.32375 79.4421
lradius 41.8837
lwrist 37.3752
lhand -16.8581 60.4209
lfingers 7.12502
lthumb 9.37229 989.807
rfemur -49.954 -13.6851 33.8843
rtibia 32.8809
rfoot -11.8411 -7.03931
rtoes -21.4481
lfemur -58.5576 7.07227 -16.6213
ltibia 38.585
lfoot -9.02767 8.59097
ltoes -27.2101
3246
root 10.6757 17.3654 -3.88039 -238.064 -264.002 451.153
lowerback 37.1625 -0.769762 -0.0275647
upperback 9.71007 -0.0534482 -1.80148
thorax -7.60905 0.431417 -1.93051
lowerneck -26.4508 5.00494 2.56218
upperneck 25.4984 6.9022 -2.36405
head 13.1272 2.93664 -0.0489163
rclavicle 3.18055e-014 1.98785e-014
rhumerus 16.466 -7.85192 -69.8119
rradius 26.7923
rwrist 15.6824
rhand -31.8244 13.2436
rfingers 7.12502
rthumb -5.07915 -16.6755
lclavicle 3.18055e-014 1.98785e-014
lhumerus 24.5774 -1.04098 80.3823
lradius 41.9788
lwrist 37.1127
lhand -17.7373 60.6929
lfingers 7.12502
lthumb 8.52385 989.499
rfemur -49.7768 -13.4308 33.7492
rtibia 32.7431
rfoot -11.7643 -7.0531
rtoes -21.4548
lfemur -58.4162 7.20361 -16.6032
ltibia 38.6241
lfoot -9.01868 8.78378
ltoes -27.1821
3247
root 10.6747 17.3681 -3.88444 -235.807 -263.94 453.499
lowerback 36.8491 -0.802753 -0.0396396
upperback 9.70208 -0.113524 -1.83359
thorax -7.51209 0.399236 -1.93318
lowerneck -26.4263 5.01363 2.54742
upperneck 25.6449 6.92468 -2.33679
head 13.1812 2.9476 -0.0304387
rclavicle 2.14687e-014 2.82274e-014
rhumerus 16.6581 -5.83749 -70.1283
rradius 30.4683
rwrist 8.09807
rhand -31.8113 12.0485
rfingers 7.12502
rthumb -5.06652 -17.8709
lclavicle 2.14687e-014 2.82274e-014
lhumerus 24.0913 0.126647 81.1825
lradius 42.2331
lwrist 36.7634
lhand -18.4996 61.193
lfingers 7.12502
lthumb 7.78819 988.97
rfemur -49.6103 -13.1741 33.6162
rtibia 32.6298
rfoot -11.6646 -7.11333
rtoes -21.5916
lfemur -58.2733 7.24832 -16.5299
ltibia 38.6488
lfoot -9.04492 9.03333
ltoes -27.4264
3248
root 10.6751 17.3697 -3.88612 -233.54 -263.916 455.868
lowerback 36.505 -0.798913 -0.0386187
upperback 9.67421 -0.129565 -1.89855
thorax -7.42461 0.387257 -1.99427
lowerneck -26.3998 4.96008 2.56467
upperneck 25.8097 6.83825 -2.28083
head 13.2396 2.91926 -0.0264862
rclavicle -1.59028e-014 -2.74323e-014
rhumerus 16.6607 -4.2226 -70.7001
rradius 34.5185
rwrist 2.21256
rhand -32.0334 10.1507
rfingers 7.12502
rthumb -5.28103 -19.7635
lclavicle -1.59028e-014 -2.74323e-014
lhumerus 23.4302 0.906759 81.7774
lradius 42.9665
lwrist 36.6508
lhand -19.3512 62.4658
lfingers 7.12502
lthumb 6.96615 987.669
rfemur -49.443 -12.9485 33.444
rtibia 32.5509
rfoot -11.5773 -7.15105
rtoes -21.6756
lfemur -58.1091 7.30891 -16.5256
ltibia 38.6645
lfoot -9.19156 9.23413
ltoes -27.0192
3249
root 10.6768 17.3715 -3.88688 -231.16 -263.905 458.415
lowerback 36.2762 -0.745231 -0.0267609
upperback 9.63816 -0.0779438 -1.95941
thorax -7.38341 0.407753 -2.08279
lowerneck -26.4178 4.87612 2.59345
upperneck 25.8908 6.71466 -2.28594
head 13.2747 2.86773 -0.0552631
rclavicle -1.98785e-014 -7.15625e-015
rhumerus 16.5477 -2.80878 -71.308
rradius 38.7576
rwrist -1.71024
rhand -32.5445 8.07289
rfingers 7.12502
rthumb -5.77446 -21.8284
lclavicle -1.98785e-014 -7.15625e-015
lhumerus 22.6924 1.25303 82.172
lradius 44.0536
lwrist 36.5844
lhand -20.1225 64.2115
lfingers 7.12502
lthumb 6.22154 985.9
rfemur -49.2046 -12.7135 33.1985
rtibia 32.5063
rfoot -11.5598 -7.18327
rtoes -21.2936
lfemur -57.8719 7.4571 -16.6109
ltibia 38.6789
lfoot -9.29451 9.31531
ltoes -26.7019
3250
root 10.6812 17.3727 -3.88538 -228.673 -263.883 461.114
lowerback 36.0986 -0.727 -0.216668
upperback 9.58552 -0.129489 -1.9039
thorax -7.37789 0.377012 -1.90403
lowerneck -26.4431 4.89785 2.40659
upperneck 26.0075 6.8491 -2.33933
head 13.3267 2.8973 -0.0179674
rclavicle -2.62396e-014 6.75868e-015
rhumerus 16.6072 -0.82271 -71.8045
rradius 43.0541
rwrist -5.1623
rhand -33.1009 6.52458
rfingers 7.12502
rthumb -6.3116 -23.3614
lclavicle -2.62396e-014 6.75868e-015
lhumerus 21.8559 1.93964 82.5519
lradius 45.2244
lwrist 36.1349
lhand -20.5126 65.9453
lfingers 7.12502
lthumb 5.84493 984.155
rfemur -48.9297 -12.5311 32.9729
rtibia 32.485
rfoot -11.6019 -7.17014
rtoes -20.9978
lfemur -57.5994 7.79187 -16.832
ltibia 38.6868
lfoot -9.31236 9.20038
ltoes -27.1013
3251
root 10.688 17.3755 -3.8827 -226.076 -263.877 463.936
lowerback 35.8417 -0.574955 -0.203186
upperback 9.56193 0.0381274 -2.05477
thorax -7.30931 0.454469 -2.1309
lowerneck -26.4172 4.79484 2.82819
upperneck 26.1007 6.58532 -2.49383
head 13.377 2.80509 -0.196874
rclavicle 1.82882e-014 -3.77691e-014
rhumerus 16.4526 0.392931 -72.5776
rradius 47.3345
rwrist -8.74066
rhand -33.2031 5.74571
rfingers 7.12502
rthumb -6.41031 -24.1373
lclavicle 1.82882e-014 -3.77691e-014
lhumerus 21.1677 1.96578 82.847
lradius 46.3666
lwrist 35.4733
lhand -20.5133 67.6287
lfingers 7.12502
lthumb 5.84426 982.472
rfemur -48.6365 -12.3478 32.7125
rtibia 32.4788
rfoot -11.6498 -7.21541
rtoes -21.2476
lfemur -57.2924 8.14462 -17.0946
ltibia 38.6792
lfoot -9.40691 9.03882
ltoes -27.3609
3252
root 10.6935 17.3785 -3.88321 -224.165 -263.906 466.051
lowerback 35.5914 -0.520408 -0.29247
upperback 9.51386 0.0639675 -2.04115
thorax -7.27122 0.461086 -2.0771
lowerneck -26.306 4.73158 2.86607
upperneck 26.1189 6.52085 -2.60137
head 13.367 2.76838 -0.25939
rclavicle 7.95139e-016 1.19271e-014
rhumerus 16.4952 2.07209 -73.2622
rradius 51.4197
rwrist -12.1601
rhand -32.8507 4.94943
rfingers 7.12502
rthumb -6.07006 -24.9436
lclavicle 7.95139e-016 1.19271e-014
lhumerus 20.3785 2.69437 83.4269
lradius 47.5214
lwrist 34.5142
lhand -20.2873 69.0111
lfingers 7.12502
lthumb 6.06248 981.096
rfemur -48.3846 -12.1982 32.435
rtibia 32.4905
rfoot -11.6449 -7.31677
rtoes -21.6002
lfemur -56.9991 8.27578 -17.2539
ltibia 38.661
lfoot -9.56987 9.02422
ltoes -27.116
3253
root 10.6974 17.3786 -3.88402 -223.33 -263.946 467.061
lowerback 35.3088 -0.467953 -0.12848
upperback 9.59205 0.183154 -2.01794
thorax -7.20868 0.513478 -2.17252
lowerneck -26.5445 4.53747 2.70412
upperneck 26.2569 6.29083 -2.5307
head 13.4554 2.65881 -0.243492
rclavicle 3.02153e-014 6.75868e-015
rhumerus 16.5516 3.56469 -73.7862
rradius 55.3551
rwrist -15.1754
rhand -32.5218 4.3854
rfingers 7.12502
rthumb -5.75251 -25.5165
lclavicle 3.02153e-014 6.75868e-015
lhumerus 19.8307 3.3372 84.1877
lradius 48.6397
lwrist 33.1242
lhand -19.6364 69.9747
lfingers 7.12502
lthumb 6.69078 980.151
rfemur -48.1849 -12.0925 32.2109
rtibia 32.5261
rfoot -11.6059 -7.44576
rtoes -21.9216
lfemur -56.7643 8.30285 -17.3435
ltibia 38.6383
lfoot -9.61767 9.04966
ltoes -27.0087
3254
root 10.701 17.3773 -3.88278 -223.086 -263.986 467.484
lowerback 35.1424 -0.459209 -0.0884014
upperback 9.53617 0.20707 -1.90847
thorax -7.20919 0.51821 -2.08595
lowerneck -26.728 4.44856 2.48846
upperneck 26.4546 6.23627 -2.44491
head 13.5611 2.62123 -0.179667
rclavicle -7.95139e-015 -1.82882e-014
rhumerus 16.7146 5.35629 -74.3613
rradius 58.9636
rwrist -17.1827
rhand -32.2895 4.36094
rfingers 7.12502
rthumb -5.52827 -25.547
lclavicle -7.95139e-015 -1.82882e-014
lhumerus 19.15 4.21616 84.8845
lradius 49.8934
lwrist 32.1445
lhand -19.2042 71.1858
lfingers 7.12502
lthumb 7.10806 978.954
rfemur -47.9821 -11.9487 31.9915
rtibia 32.5952
rfoot -11.5464 -7.66497
rtoes -22.6561
lfemur -56.5473 8.33717 -17.4126
ltibia 38.6239
lfoot -9.56808 9.01628
ltoes -27.0208
3255
root 10.7056 17.3749 -3.88208 -222.933 -264.064 467.84
lowerback 35.0114 -0.440086 -0.0606697
upperback 9.44313 0.234009 -1.82374
thorax -7.26289 0.523736 -2.02087
lowerneck -26.8464 4.35202 2.3401
upperneck 26.7039 6.10968 -2.2374
head 13.6714 2.57834 -0.0933527
rclavicle -2.14687e-014 -3.85642e-014
rhumerus 16.9188 6.95531 -75.1627
rradius 62.0579
rwrist -17.6603
rhand -32.125 4.41546
rfingers 7.12502
rthumb -5.36943 -25.4965
lclavicle -2.14687e-014 -3.85642e-014
lhumerus 18.381 4.8473 85.3762
lradius 51.1937
lwrist 32.0607
lhand -19.37 72.3533
lfingers 7.12502
lthumb 6.948 977.781
rfemur -47.7639 -11.8461 31.7437
rtibia 32.6974
rfoot -11.5 -7.88865
rtoes -23.4787
lfemur -56.3125 8.37097 -17.5359
ltibia 38.6259
lfoot -9.56276 8.96956
ltoes -27.2982
3256
root 10.7111 17.3713 -3.88166 -222.912 -264.136 468.075
lowerback 34.9236 -0.25627 0.453136
upperback 9.35482 0.602116 -2.03103
thorax -7.31578 0.695837 -2.64635
lowerneck -26.8896 3.99636 2.82706
upperneck 26.8498 5.36038 -2.10448
head 13.7327 2.32972 -0.264555
rclavicle -1.11319e-014 -3.97569e-016
rhumerus 16.8582 7.45061 -76.2111
rradius 64.6466
rwrist -17.2714
rhand -32.2674 4.63627
rfingers 7.12502
rthumb -5.50691 -25.2722
lclavicle -1.11319e-014 -3.97569e-016
lhumerus 17.806 4.19524 85.5853
lradius 52.3988
lwrist 32.0312
lhand -19.3923 72.6818
lfingers 7.12502
lthumb 6.92645 977.451
rfemur -47.5618 -11.8785 31.588
rtibia 32.8139
rfoot -11.5649 -7.97427
rtoes -23.5179
lfemur -56.0608 8.35479 -17.6089
ltibia 38.6321
lfoot -9.58578 8.98439
ltoes -27.6339
3257
root 10.7166 17.3694 -3.88172 -223.008 -264.187 468.16
lowerback 34.7915 -0.182698 0.703431
upperback 9.25594 0.758323 -2.07032
thorax -7.36836 0.763497 -2.87741
lowerneck -26.703 3.86443 3.13328
upperneck 26.8113 5.0789 -2.19818
head 13.6839 2.23247 -0.410112
rclavicle -2.22639e-014 3.22031e-014
rhumerus 17.1629 8.78368 -77.1288
rradius 66.629
rwrist -16.7786
rhand -32.6356 5.30604
rfingers 7.12502
rthumb -5.86241 -24.5929
lclavicle -2.22639e-014 3.22031e-014
lhumerus 17.1095 4.09816 85.7166
lradius 53.7094
lwrist 31.5914
lhand -19.1208 72.5445
lfingers 7.12502
lthumb 7.18851 977.598
rfemur -47.4232 -11.9846 31.5247
rtibia 32.9279
rfoot -11.687 -7.96822
rtoes -23.2822
lfemur -55.8116 8.16612 -17.5111
ltibia 38.6165
lfoot -9.60617 9.14176
ltoes -27.4344
3258
root 10.723 17.3706 -3.88265 -222.856 -264.259 468.449
lowerback 34.5542 -0.147465 0.745165
upperback 9.19185 0.80938 -1.99459
thorax -7.34963 0.780858 -2.83571
lowerneck -26.6625 3.8345 3.16054
upperneck 26.9424 5.03101 -2.18095
head 13.7298 2.21849 -0.416786
rclavicle 1.74931e-014 2.82274e-014
rhumerus 17.7937 10.5245 -77.9493
rradius 68.013
rwrist -16.2438
rhand -33.0453 6.46687
rfingers 7.12502
rthumb -6.25795 -23.4207
lclavicle 1.74931e-014 2.82274e-014
lhumerus 16.3643 4.11248 85.7963
lradius 55.1427
lwrist 30.9735
lhand -19.0914 72.2229
lfingers 7.12502
lthumb 7.21696 977.92
rfemur -47.2898 -11.9253 31.3323
rtibia 33.024
rfoot -11.7257 -8.11839
rtoes -23.2226
lfemur -55.5896 8.02386 -17.4944
ltibia 38.5596
lfoot -9.61571 9.22933
ltoes -27.2153
